# xmcd
#
# Track frame offsets:
#	150
#	26866
#	45833
#	64185
#	76679
#	97086
#	124717
#	147910
#	161092
#	183400
#	205661
#	224270
#	241388
#	257019
#	284801
#	309499
#	320882
#	335467
#
# Disc length: 4706 seconds
#
# Revision: 0
# Processed by: cddbd v1.5.2PL0 Copyright (c) Steve Scherf et al.
# Submitted via: EasyCDDAExtractor 11.5.0.1
#
DISCID=0e126012
DTITLE=Various Artist - Buford's Blasts Vol. 3
DYEAR=1900
DGENRE=r&B
TTITLE0=Carrie Lucas - Just A Memory
TTITLE1=Eddie Kendricks - Never Gonna Leave
TTITLE2=Heaven and Earth - Find Love
TTITLE3=The Gifts - Loving You
TTITLE4=The Whispers - Only You
TTITLE5=Giorge Pettus - Can You Wait
TTITLE6=The Dells - Can We Skip That Part
TTITLE7=Brothers Of Soul - I Guess That Don't Make Me A Loser
TTITLE8=The Dramatics - I'm So Alone
TTITLE9=The Spinners - I'm Glad You Walked Into My Life
TTITLE10=Sly, Slick and Wicked - Not On The Outside
TTITLE11=The Escorts - I Loved And I Lost
TTITLE12=The Whispers - Love At It's Best
TTITLE13=The Moments - I Don't Wanna Go
TTITLE14=Artist Unlisted - Just A Dream
TTITLE15=Magnum Force - Never Again
TTITLE16=The Montclairs - Dreaming's Out Of Season
TTITLE17=The Notations - It Only Hurts For A Little While
EXTD=
EXTT0=
EXTT1=
EXTT2=
EXTT3=
EXTT4=
EXTT5=
EXTT6=
EXTT7=
EXTT8=
EXTT9=
EXTT10=
EXTT11=
EXTT12=
EXTT13=
EXTT14=
EXTT15=
EXTT16=
EXTT17=
PLAYORDER=
